<?xml version="1.0" standalone="no"?>
<!DOCTYPE svg PUBLIC "-//W3C//DTD SVG 20010904//EN"
 "http://www.w3.org/TR/2001/REC-SVG-20010904/DTD/svg10.dtd">
<svg version="1.0" xmlns="http://www.w3.org/2000/svg"
 width="560.000000pt" height="560.000000pt" viewBox="0 0 560.000000 560.000000"
 preserveAspectRatio="xMidYMid meet">
<metadata>
Created by potrace 1.14, written by Peter Selinger 2001-2017
</metadata>
<g transform="translate(0.000000,560.000000) scale(0.100000,-0.100000)"
fill="#000000" stroke="none">
<path d="M2648 5564 c-3 -3 -41 -7 -84 -9 -91 -4 -230 -42 -301 -81 -80 -45
-86 -48 -104 -64 -10 -8 -38 -31 -62 -50 -54 -44 -126 -131 -158 -190 -13 -25
-27 -47 -30 -50 -5 -5 -21 -43 -19 -48 0 -1 -7 -16 -15 -32 -9 -17 -13 -30
-10 -30 3 0 1 -9 -5 -21 -7 -11 -14 -32 -16 -47 -7 -38 -8 -38 -76 -51 -35 -7
-97 -22 -138 -33 -41 -11 -82 -21 -90 -23 -30 -6 -241 -76 -277 -92 -21 -9
-40 -17 -43 -18 -13 -2 -147 -60 -160 -70 -8 -6 -48 -26 -87 -45 -40 -19 -73
-37 -73 -41 0 -4 -11 -10 -25 -13 -14 -4 -25 -11 -25 -16 0 -6 -5 -10 -10 -10
-10 0 -101 -61 -127 -84 -6 -6 -25 -22 -43 -35 -37 -29 -136 -130 -158 -163
-9 -13 -19 -25 -22 -28 -11 -9 -66 -105 -83 -145 -31 -75 -44 -150 -41 -236 4
-125 11 -153 62 -254 92 -186 297 -369 568 -508 63 -33 221 -106 227 -106 2 0
56 -19 77 -28 8 -3 18 -7 23 -8 4 -2 9 -4 12 -5 3 -1 8 -3 13 -4 4 -1 39 -13
77 -25 39 -13 84 -27 100 -31 69 -20 111 -31 135 -36 13 -3 26 -7 28 -9 2 -2
12 -39 22 -82 21 -93 26 -108 81 -228 27 -60 80 -149 91 -153 4 -2 8 -8 8 -14
0 -5 6 -15 13 -22 6 -8 36 -41 66 -76 71 -80 176 -165 273 -220 64 -36 77 -48
76 -67 -1 -13 -5 -23 -8 -24 -3 0 -14 -2 -25 -4 -11 -2 -36 -6 -55 -8 -37 -5
-47 -7 -155 -32 -125 -30 -240 -89 -304 -156 -32 -35 -73 -108 -79 -144 -2
-11 -5 -27 -7 -35 -2 -8 -4 -23 -4 -32 -1 -11 -29 -31 -81 -57 -227 -112 -427
-290 -565 -501 -66 -102 -87 -140 -78 -140 4 0 3 -4 -2 -8 -19 -13 -73 -147
-106 -262 -15 -53 -15 -54 -23 -100 -3 -19 -8 -46 -11 -60 -15 -74 -23 -369
-10 -390 4 -7 623 -10 2001 -10 l1994 0 1 23 c1 19 0 82 -2 112 0 6 0 33 0 60
4 248 -86 553 -221 752 -15 23 -28 45 -28 48 0 4 -30 43 -66 87 -139 168 -297
295 -481 387 l-79 39 -12 62 c-7 34 -22 79 -33 101 -42 79 -157 162 -283 204
-56 19 -127 37 -151 40 -21 3 -94 15 -123 20 -9 2 -23 4 -29 4 -7 1 -13 12
-13 25 0 17 9 28 33 39 18 9 49 27 70 41 21 14 41 26 44 26 19 0 186 155 253
235 87 104 190 321 215 455 12 65 14 68 63 79 115 24 354 105 522 175 40 16
268 139 294 159 152 110 200 150 260 216 17 19 38 42 46 51 33 36 102 156 123
210 25 68 31 107 31 205 1 101 -13 162 -57 250 -28 57 -79 137 -102 161 -5 6
-28 31 -50 55 -23 24 -66 64 -95 89 -30 25 -57 47 -60 50 -11 12 -129 90 -135
90 -3 0 -25 13 -48 28 -50 33 -286 145 -332 158 -5 1 -48 16 -94 34 -73 27
-282 89 -351 104 -14 3 -48 11 -77 17 -50 11 -52 13 -59 52 -8 53 -54 163 -96
235 -31 53 -149 181 -209 227 -49 38 -122 77 -192 103 -113 43 -184 52 -397
52 -170 -1 -213 0 -220 5 -4 3 -10 2 -12 -1z"/>
</g>
</svg>
